<?xml version="1.0" standalone="no"?>
<!DOCTYPE svg PUBLIC "-//W3C//DTD SVG 20010904//EN"
 "http://www.w3.org/TR/2001/REC-SVG-20010904/DTD/svg10.dtd">
<svg version="1.0" xmlns="http://www.w3.org/2000/svg"
 width="1000.000000pt" height="1000.000000pt" viewBox="0 0 1000.000000 1000.000000"
 preserveAspectRatio="xMidYMid meet">

<g transform="translate(0.000000,1000.000000) scale(0.100000,-0.100000)"
fill="#080068" stroke="none">
<path d="M5003 7231 l-263 -66 0 -112 0 -113 -135 0 -135 0 0 -225 0 -225 135
0 134 0 3 -308 3 -307 33 -67 c50 -103 131 -160 280 -200 131 -34 563 -35 733
-1 l29 6 0 216 0 216 24 -57 c58 -140 147 -234 291 -303 152 -73 324 -105 570
-105 248 0 421 32 575 107 175 84 280 220 320 411 l19 87 0 -292 1 -293 265 0
265 0 0 359 0 359 43 37 c105 91 263 139 427 133 157 -7 223 -46 267 -160 15
-37 18 -94 21 -385 l3 -343 265 0 264 0 0 448 c0 414 -2 455 -20 526 -52 204
-182 321 -410 368 -80 17 -120 19 -250 15 -213 -8 -363 -49 -530 -147 -38 -22
-71 -40 -74 -40 -3 0 -6 38 -6 85 l0 85 -265 0 -265 0 -1 -292 0 -293 -19 87
c-27 129 -70 209 -160 298 -56 56 -95 85 -155 114 -148 72 -336 106 -580 106
-481 0 -764 -140 -871 -430 -11 -31 -13 -7 -13 188 l-1 222 -275 0 -275 0 -2
178 -3 178 -262 -65z m1917 -741 c110 -32 160 -101 160 -220 0 -108 -48 -182
-140 -216 -106 -38 -385 -35 -478 6 -98 44 -126 91 -126 210 0 119 28 166 127
210 93 41 331 46 457 10z m-1107 -42 c-9 -48 -11 -289 -3 -358 l5 -45 -55 -7
c-30 -4 -122 -9 -205 -10 -138 -3 -154 -1 -195 19 -77 38 -84 60 -88 266 l-4
177 276 0 276 0 -7 -42z"/>
<path d="M1170 7138 c-6 -13 -152 -364 -324 -781 l-314 -757 320 2 321 3 51
135 52 135 335 3 335 2 48 -129 c27 -71 52 -134 55 -140 5 -8 100 -11 323 -9
l316 3 -321 777 -322 778 -433 0 -432 0 -10 -22z m530 -610 c46 -123 85 -229
88 -235 3 -10 -37 -13 -178 -13 -100 0 -180 4 -178 9 2 4 41 110 88 234 47
125 88 227 91 227 3 0 43 -100 89 -222z"/>
<path d="M3265 6949 c-289 -30 -474 -123 -540 -272 -52 -115 -44 -271 18 -364
96 -144 275 -186 902 -213 250 -11 292 -19 301 -55 17 -70 -41 -85 -329 -85
-291 0 -378 16 -405 73 l-13 27 -266 0 -266 0 7 -62 c11 -114 80 -220 184
-287 61 -38 200 -85 327 -107 146 -27 717 -27 850 -1 320 63 445 186 446 439
1 108 -19 171 -71 230 -107 123 -272 159 -867 193 -264 14 -305 23 -311 61 -7
46 11 49 331 49 l299 0 27 -32 27 -33 262 0 262 0 0 33 c0 58 -30 150 -66 205
-60 91 -180 154 -362 189 -94 18 -612 26 -747 12z"/>
<path d="M950 3840 l0 -780 825 0 825 0 0 225 0 225 -535 0 -535 0 0 70 0 70
525 0 525 0 4 -22 c2 -13 10 -50 16 -83 37 -190 177 -350 371 -425 152 -58
258 -74 514 -74 246 -1 319 7 460 51 197 62 331 171 399 325 14 30 28 72 31
92 4 20 10 36 14 36 3 0 16 -33 29 -74 96 -303 406 -448 927 -433 199 6 303
22 430 65 110 38 183 83 257 157 67 68 129 184 147 275 6 30 13 64 15 75 2 11
4 -109 5 -267 l1 -288 270 0 270 0 0 364 0 364 48 42 c26 22 80 57 121 77 65
33 83 38 168 41 109 5 163 -10 213 -61 58 -59 63 -95 68 -479 l4 -348 264 0
264 0 0 363 0 362 59 47 c93 76 179 111 281 116 109 5 164 -9 211 -57 64 -64
69 -96 69 -488 l0 -343 271 0 270 0 -3 478 c-4 428 -6 483 -22 532 -62 188
-179 293 -375 336 -57 13 -104 15 -210 11 -226 -9 -400 -68 -551 -186 l-65
-51 -15 23 c-95 142 -260 216 -483 217 -207 0 -380 -62 -526 -187 -28 -24 -52
-43 -55 -43 -3 0 -6 47 -6 105 l0 105 -270 0 -270 0 -1 -287 c-1 -159 -3 -279
-5 -268 -2 11 -9 45 -15 75 -6 30 -28 91 -49 135 -93 195 -284 308 -589 351
-144 20 -453 15 -577 -10 -297 -59 -481 -198 -547 -413 -12 -40 -25 -73 -28
-73 -4 0 -10 17 -14 38 -14 76 -74 182 -144 251 -97 97 -225 158 -411 197
-119 24 -440 30 -581 10 -324 -45 -508 -162 -605 -383 l-34 -78 0 43 0 42
-535 0 -535 0 0 75 0 75 535 0 535 0 0 220 0 220 -825 0 -825 0 0 -780z m2725
119 c68 -13 125 -47 154 -92 l24 -37 264 0 263 0 0 -100 0 -100 -263 0 -264 0
-24 -37 c-50 -78 -143 -106 -349 -104 -269 2 -360 63 -360 241 0 119 48 189
151 221 88 27 287 31 404 8z m1801 0 c124 -24 184 -99 184 -229 0 -127 -49
-193 -171 -226 -65 -18 -311 -21 -382 -4 -136 30 -190 96 -190 230 0 114 33
169 126 210 83 37 293 46 433 19z"/>
</g>
</svg>
