<?xml version="1.0" standalone="no"?>
<!DOCTYPE svg PUBLIC "-//W3C//DTD SVG 20010904//EN"
 "http://www.w3.org/TR/2001/REC-SVG-20010904/DTD/svg10.dtd">
<svg version="1.0" xmlns="http://www.w3.org/2000/svg"
 width="750.000000pt" height="750.000000pt" viewBox="0 0 750.000000 750.000000"
 preserveAspectRatio="xMidYMid meet">

<g transform="translate(0.000000,750.000000) scale(0.100000,-0.100000)"
fill="#080068" stroke="none">
<path d="M0 3750 l0 -3750 3750 0 3750 0 0 3750 0 3750 -3750 0 -3750 0 0
-3750z m3945 3140 c254 -17 438 -48 678 -116 508 -144 981 -424 1357 -803 488
-491 786 -1086 890 -1776 27 -179 37 -517 21 -708 -46 -544 -233 -1071 -539
-1517 -163 -237 -422 -516 -642 -690 -556 -441 -1242 -680 -1953 -680 -539 0
-1052 129 -1512 382 -696 381 -1222 1008 -1477 1758 -204 601 -219 1268 -42
1882 91 317 215 582 409 873 125 188 220 303 383 469 209 211 430 381 687 528
513 293 1142 437 1740 398z"/>
<path d="M3738 5033 l-138 -35 0 -64 0 -64 -80 0 -80 0 0 -130 0 -129 78 -3
77 -3 5 -185 c6 -209 12 -231 85 -282 70 -48 148 -61 341 -56 94 3 176 8 182
12 8 5 12 47 12 129 l0 122 -130 -3 c-127 -4 -130 -3 -155 22 -24 24 -25 31
-25 136 l0 110 155 0 155 0 0 130 0 130 -155 0 -155 0 0 100 c0 89 -2 100 -17
99 -10 0 -80 -17 -155 -36z"/>
<path d="M1533 4988 c-7 -12 -373 -889 -373 -895 0 -2 83 -3 184 -3 l184 0 30
78 29 77 196 3 195 2 30 -77 29 -78 186 -3 186 -2 -59 142 c-32 79 -117 283
-187 453 l-129 310 -246 3 c-191 2 -248 -1 -255 -10z m310 -380 l45 -118 -104
0 -103 0 28 78 c74 198 74 197 82 177 4 -11 27 -73 52 -137z"/>
<path d="M2728 4870 c-239 -28 -355 -147 -308 -316 34 -120 138 -155 516 -173
100 -4 186 -11 193 -15 20 -13 12 -46 -15 -56 -34 -13 -309 -13 -356 0 -22 6
-39 19 -43 30 -6 19 -16 20 -161 20 -153 0 -154 0 -154 -22 0 -95 73 -180 185
-216 103 -34 218 -45 425 -39 201 5 277 21 351 71 111 76 119 291 15 356 -79
48 -162 63 -451 80 -133 8 -184 15 -195 25 -32 33 2 40 186 40 156 0 177 -2
188 -17 12 -16 32 -18 169 -18 l157 0 -6 33 c-18 100 -73 165 -166 191 -118
34 -357 46 -530 26z"/>
<path d="M4585 4870 c-180 -27 -298 -105 -346 -228 -33 -84 -33 -243 0 -326
67 -168 242 -244 540 -234 124 5 158 9 225 32 142 48 215 120 248 246 l17 65
0 -167 1 -168 155 0 155 0 0 208 c0 239 -4 228 100 276 107 49 240 44 293 -12
39 -41 47 -92 47 -289 l0 -183 156 0 156 0 -4 278 -3 277 -33 68 c-54 109
-138 155 -302 164 -144 8 -213 -10 -402 -105 -5 -2 -8 19 -8 47 l0 51 -155 0
-155 0 -1 -167 c-1 -155 -2 -164 -13 -118 -39 156 -149 246 -340 280 -92 16
-244 18 -331 5z m299 -270 c63 -32 89 -113 58 -186 -22 -53 -63 -68 -188 -72
-94 -4 -118 -1 -156 16 -113 50 -99 217 21 251 52 15 230 8 265 -9z"/>
<path d="M1400 3075 l0 -455 480 0 480 0 0 130 0 130 -310 0 -310 0 0 40 0 40
304 0 304 0 12 -52 c43 -201 210 -298 512 -298 289 0 442 74 507 245 l18 48
13 -39 c56 -170 223 -254 504 -254 200 0 350 44 430 126 46 47 64 81 87 159
l18 60 0 -167 1 -168 155 0 155 0 0 214 0 214 43 32 c82 60 198 75 256 32 51
-37 56 -61 59 -284 l4 -208 154 0 154 0 0 214 0 214 53 35 c95 65 208 74 260
19 39 -42 47 -91 47 -294 l0 -188 155 0 155 0 0 258 c0 281 -8 339 -56 411
-34 52 -86 87 -159 106 -143 37 -329 1 -443 -85 l-52 -40 -40 44 c-50 54 -121
86 -210 93 -125 10 -246 -25 -332 -98 l-47 -39 -3 62 -3 63 -152 3 -153 3 -1
-168 0 -168 -18 61 c-22 77 -51 123 -108 173 -89 79 -250 117 -453 107 -246
-11 -374 -74 -443 -216 l-33 -68 -18 51 c-26 72 -112 157 -191 186 -102 39
-215 54 -355 47 -241 -11 -372 -73 -440 -208 -19 -38 -30 -53 -30 -40 l0 22
-310 0 -310 0 0 45 0 45 310 0 310 0 0 130 0 130 -480 0 -480 0 0 -455z m1594
64 c22 -6 52 -24 68 -40 l30 -29 149 0 149 0 0 -60 0 -60 -151 0 -150 0 -25
-30 c-33 -38 -78 -50 -194 -50 -150 1 -210 40 -210 139 0 70 31 111 99 131 39
12 191 11 235 -1z m1038 0 c21 -5 50 -20 65 -33 23 -20 27 -33 31 -88 4 -58 2
-67 -23 -96 -34 -40 -77 -52 -195 -52 -150 1 -210 40 -210 139 0 70 31 111 99
131 38 12 190 11 233 -1z"/>
</g>
</svg>
