<?xml version="1.0" standalone="no"?>
<!DOCTYPE svg PUBLIC "-//W3C//DTD SVG 20010904//EN"
 "http://www.w3.org/TR/2001/REC-SVG-20010904/DTD/svg10.dtd">
<svg version="1.0" xmlns="http://www.w3.org/2000/svg"
 width="500.000000pt" height="178.000000pt" viewBox="0 0 500.000000 178.000000"
 preserveAspectRatio="xMidYMid meet">

<g transform="translate(0.000000,178.000000) scale(0.111000,-0.111000)"
fill="#080068" stroke="none">
<path d="M250 890 l0 -700 255 0 c220 0 255 2 255 15 0 13 -33 15 -240 15
l-240 0 0 670 0 670 2220 0 2220 0 0 -670 0 -670 -240 0 c-207 0 -240 -2 -240
-15 0 -13 35 -15 255 -15 l255 0 0 700 0 700 -2250 0 -2250 0 0 -700z"/>
<path d="M1443 1187 c-35 -8 -42 -14 -45 -36 -2 -21 -9 -27 -35 -29 -31 -3
-33 -6 -33 -40 l-1 -37 -14 26 c-8 15 -29 32 -47 38 -87 31 -256 21 -308 -18
-53 -39 -52 -109 3 -137 20 -11 70 -20 134 -24 57 -3 106 -10 110 -14 26 -26
-103 -36 -151 -11 -15 8 -53 15 -82 15 -48 0 -54 -2 -54 -21 0 -11 13 -33 28
-49 35 -35 83 -43 220 -38 83 2 106 7 129 24 38 29 52 84 29 119 -23 36 -55
45 -170 53 -66 5 -101 11 -104 20 -5 15 129 17 144 2 5 -5 52 -10 104 -12 l95
-3 3 -65 c1 -36 4 -75 7 -87 9 -38 54 -53 155 -53 l90 0 1 48 c0 38 2 43 10
27 6 -11 26 -31 46 -45 30 -21 51 -26 120 -29 46 -1 99 0 118 3 42 8 93 50
111 91 13 29 13 28 14 -32 l0 -63 60 0 60 0 0 85 c0 80 1 85 26 102 31 20 117
24 136 5 8 -8 14 -47 16 -102 l4 -90 59 0 59 0 0 113 c0 122 -8 147 -53 181
-40 29 -145 28 -205 -3 -42 -21 -42 -21 -42 -1 0 18 -6 20 -60 20 l-60 0 0
-62 0 -63 -20 43 c-27 59 -86 86 -190 86 -95 1 -164 -23 -191 -68 l-19 -31 0
48 0 47 -65 0 -65 0 0 40 c0 44 -3 45 -77 27z m203 -222 l0 -55 -51 0 c-62 0
-75 11 -75 67 l0 43 63 0 63 0 0 -55z m275 45 c23 -13 26 -62 3 -84 -21 -22
-117 -22 -138 0 -22 21 -20 70 2 83 22 14 108 14 133 1z"/>
<path d="M495 999 c-38 -94 -71 -175 -73 -180 -2 -5 30 -9 71 -9 l75 0 12 35
12 35 74 0 74 0 17 -35 17 -35 73 0 c54 0 71 3 68 13 -3 6 -36 86 -74 177
l-68 165 -104 3 -104 2 -70 -171z m195 25 c11 -25 20 -48 20 -50 0 -2 -18 -4
-41 -4 -29 0 -40 4 -36 13 2 6 10 29 18 50 7 20 15 37 16 37 2 0 13 -21 23
-46z"/>
<path d="M2690 990 l0 -180 190 0 190 0 0 48 1 47 27 -32 c38 -46 87 -63 179
-63 120 0 180 26 204 89 l10 24 17 -34 c27 -54 87 -79 192 -79 105 0 165 25
192 80 l18 35 0 -57 0 -58 65 0 65 0 0 83 c0 94 10 111 68 123 24 5 38 2 52
-11 17 -15 20 -31 20 -107 l0 -88 65 0 65 0 0 89 0 89 34 16 c81 38 106 13
106 -107 l0 -87 66 0 66 0 -4 120 c-5 140 -17 166 -88 189 -50 16 -133 2 -173
-29 -24 -19 -25 -19 -42 0 -28 31 -89 43 -146 30 -26 -7 -53 -18 -60 -26 -16
-20 -29 -17 -29 6 0 18 -7 20 -65 20 l-65 0 0 -51 0 -52 -23 34 c-35 53 -87
73 -187 73 -99 0 -153 -20 -185 -69 l-19 -31 -41 42 c-33 34 -51 44 -99 54
-104 21 -217 -5 -257 -59 -19 -26 -19 -26 -144 -23 -101 3 -125 6 -125 18 0
11 22 14 120 14 l120 0 0 50 0 50 -190 0 -190 0 0 -180z m664 15 c10 -10 35
-15 75 -15 58 0 61 -1 61 -25 0 -24 -3 -25 -62 -25 -40 -1 -70 -6 -82 -15 -23
-17 -98 -20 -127 -5 -25 14 -26 75 -1 89 27 16 118 13 136 -4z m420 -7 c21
-30 20 -44 -4 -68 -15 -15 -33 -20 -70 -20 -76 0 -114 47 -73 92 12 13 31 18
74 18 48 0 60 -4 73 -22z m-701 -68 c5 -19 0 -20 -119 -20 -117 0 -124 1 -124
20 0 19 7 20 119 20 110 0 119 -1 124 -20z"/>
</g>
</svg>
